<svg xmlns="http://www.w3.org/2000/svg" xmlns:xlink="http://www.w3.org/1999/xlink" viewBox="0 0 162.63 137"><defs><style>.cls-1{fill:#fff;}.cls-2{fill:#00bf25;filter:url(#filter);}</style><filter id="filter" x="24.12" y="52" width="108" height="85" filterUnits="userSpaceOnUse"><feOffset dx="-4" dy="-7" input="SourceAlpha"/><feGaussianBlur stdDeviation="6" result="blur"/><feFlood/><feComposite operator="in" in2="blur"/><feComposite in="SourceGraphic"/></filter></defs><g id="Layer_2" data-name="Layer 2"><g id="Layer_1-2" data-name="Layer 1"><path class="cls-1" d="M115.72,107.1l-43.8,17.8a2,2,0,0,1-2.3-.6L.42,35a2,2,0,0,1,1.5-3.2h57.6a1.76,1.76,0,0,1,1.5.8l55.4,71.5A1.87,1.87,0,0,1,115.72,107.1Z"/><path class="cls-2" d="M46.52,94.4l24,31L118,106,95.72,77.4C81.82,83.4,66.62,90.4,46.52,94.4Z"/><path class="cls-1" d="M161.92,0s-29.2,71.2-117.2,92.1l25.8,33.4C176.82,103.7,161.92,0,161.92,0Z"/></g></g></svg>